<svg width="6" height="10" viewBox="0 0 6 10" fill="none" xmlns="http://www.w3.org/2000/svg">
<path d="M3.78 7.54999H2.184C2.16533 7.05788 2.212 6.62148 2.324 6.2408C2.44533 5.86011 2.604 5.54906 2.8 5.30765C3.00533 5.05695 3.21067 4.82947 3.416 4.6252C3.62133 4.42093 3.81733 4.19808 4.004 3.95667C4.2 3.70598 4.33067 3.44599 4.396 3.17673C4.47067 2.62891 4.35867 2.2018 4.06 1.89539C3.76133 1.5797 3.36933 1.42185 2.884 1.42185C2.52 1.42185 2.18867 1.54256 1.89 1.78397C1.59133 2.02538 1.414 2.34572 1.358 2.74497H0C0.0373333 1.84432 0.312667 1.16187 0.826 0.697618C1.34867 0.233365 2.03 0.00123798 2.87 0.00123798C3.64467 -0.0173319 4.32133 0.173012 4.9 0.572269C5.488 0.971527 5.838 1.49613 5.95 2.14609C6.006 2.49892 6.01533 2.80533 5.978 3.06531C5.94067 3.39957 5.83333 3.71526 5.656 4.01238C5.488 4.30022 5.29667 4.55556 5.082 4.7784C4.87667 5.00124 4.67133 5.23801 4.466 5.48871C4.26067 5.73012 4.09267 6.02724 3.962 6.38007C3.83133 6.72362 3.77067 7.11359 3.78 7.54999ZM3.626 9.75055C3.458 9.9084 3.24333 9.98732 2.982 9.98732C2.72067 9.98732 2.49667 9.9084 2.31 9.75055C2.13267 9.5927 2.044 9.38843 2.044 9.13774C2.044 8.88704 2.13267 8.68277 2.31 8.52492C2.49667 8.36708 2.72067 8.28815 2.982 8.28815C3.24333 8.28815 3.458 8.36708 3.626 8.52492C3.80333 8.68277 3.892 8.88704 3.892 9.13774C3.892 9.38843 3.80333 9.5927 3.626 9.75055Z" fill="#444B58"/>
</svg>
